%
M48
M72
T01C0.02362
T02C0.03200
T03C0.03937
T04C0.04000
T05C0.04700
T06C0.04724
T07C0.07100
%
T01
X85013Y111000
X105013Y121000
X110013Y171000
X225013Y131000
X285013Y131000
X310013Y146000
X345013Y106000
X300013Y66000
X275013Y271000
X235013Y326000
X135013Y276000
T02
X165013Y251000
X175013Y251000
X185013Y251000
X195013Y251000
X205013Y251000
X215013Y251000
X225013Y251000
X235013Y251000
X245013Y251000
X255013Y251000
X265013Y251000
X275013Y251000
X285013Y251000
X295013Y251000
X365013Y221000
X405013Y221000
X420013Y256000
X460013Y256000
X385013Y301000
X345013Y301000
X295013Y191000
X285013Y191000
X275013Y191000
X265013Y191000
X255013Y191000
X245013Y191000
X235013Y191000
X225013Y191000
X215013Y191000
X205013Y191000
X195013Y191000
X185013Y191000
X175013Y191000
X165013Y191000
X175013Y141000
X175013Y121000
X130013Y121000
X130013Y141000
X80013Y261000
X80013Y281000
X80013Y296000
X80013Y311000
X100013Y311000
X80013Y331000
X80013Y351000
X40013Y296000
X40013Y281000
X40013Y261000
X335013Y176000
X335013Y136000
X400013Y176000
X440013Y176000
X540013Y111000
X580013Y111000
T03
X542809Y137142
X517218Y137142
X517218Y154858
X542809Y154858
X582218Y197142
X607809Y197142
X607809Y214858
X582218Y214858
X542809Y257142
X517218Y257142
X517218Y274858
X542809Y274858
X482809Y219858
X482809Y202142
X457218Y202142
X457218Y219858
T04
X105013Y21000
X115013Y21000
X125013Y21000
X135013Y21000
X145013Y21000
X155013Y21000
X240013Y36000
X240013Y46000
X250013Y46000
X260013Y46000
X260013Y36000
X250013Y36000
X270013Y36000
X270013Y46000
X280013Y46000
X290013Y46000
X290013Y36000
X280013Y36000
X300013Y36000
X310013Y36000
X310013Y46000
X300013Y46000
X320013Y46000
X330013Y46000
X330013Y36000
X320013Y36000
X55013Y101000
X55013Y111000
X55013Y121000
X55013Y131000
X55013Y141000
X55013Y151000
X40013Y221000
X40013Y231000
X165013Y326000
X165013Y336000
X165013Y346000
X220013Y376000
X230013Y376000
X240013Y376000
T05
X420613Y300600
X434613Y286600
X469413Y321400
X455413Y335400
X435413Y140400
X449413Y126400
X414613Y91600
X400613Y105600
T06
X99856Y376000
X90013Y376000
X80171Y376000
T07
X432513Y323500
X457513Y298500
X412513Y128500
X437513Y103500
M30
